<svg xmlns="http://www.w3.org/2000/svg" xmlns:xlink="http://www.w3.org/1999/xlink" viewBox="0 0 64 64"><defs><linearGradient id="a" x1="7" x2="23" y1="42.5" y2="42.5" gradientUnits="userSpaceOnUse"><stop offset="0" stop-color="#02aff8"/><stop offset="1" stop-color="#02dbf8"/></linearGradient><linearGradient id="b" x1="41" x2="57" xlink:href="#a"/><linearGradient id="c" x1="27" x2="37" y1="12" y2="12" xlink:href="#a"/><linearGradient id="d" x1="12" x2="52" y1="34" y2="34" gradientUnits="userSpaceOnUse"><stop offset="0" stop-color="#015bbb"/><stop offset="1" stop-color="#02aff8"/></linearGradient></defs><path fill="#02dbf8" d="M23 39a1 1 0 0 1-.9-.57L15 23.35 7.9 38.43a1 1 0 0 1-1.8-.86l8-17a1 1 0 0 1 1.8 0l8 17a1 1 0 0 1-.47 1.33A1 1 0 0 1 23 39zM57 39a1 1 0 0 1-.91-.57L49 23.35 41.91 38.43a1 1 0 0 1-1.82-.86l8-17a1 1 0 0 1 1.82 0l8 17a1 1 0 0 1-.48 1.33A1 1 0 0 1 57 39z"/><path fill="url(#a)" d="M22.11,37.61H7.89A.89.89,0,0,0,7,38.5v.89a8,8,0,0,0,16,0V38.5A.89.89,0,0,0,22.11,37.61Z"/><path fill="url(#b)" d="M56.11,37.61H41.89a.89.89,0,0,0-.89.89v.89a8,8,0,0,0,16,0V38.5A.89.89,0,0,0,56.11,37.61Z"/><circle cx="32" cy="12" r="5" fill="url(#c)"/><path fill="url(#d)" d="M49.89,17H14.11A2.07,2.07,0,0,0,12,18.66,2,2,0,0,0,14,21H26V51h4V37a2,2,0,0,1,2-2h0a2,2,0,0,1,2,2V51h4V21H50a2,2,0,0,0,2-2.34A2.07,2.07,0,0,0,49.89,17Z"/><path fill="#0c408d" d="M21,51H43a6,6,0,0,1,6,6v0a0,0,0,0,1,0,0H15a0,0,0,0,1,0,0v0A6,6,0,0,1,21,51Z"/><path fill="#122333" d="M15 48a8.92 8.92 0 0 1-6.47-2.74A1 1 0 0 1 10 43.86 6.93 6.93 0 0 0 15 46a7 7 0 0 0 7-7H8a6.84 6.84 0 0 0 .25 1.86 1 1 0 1 1-1.92.54A8.8 8.8 0 0 1 6 39V38a1 1 0 0 1 1-1H23a1 1 0 0 1 1 1v1A9 9 0 0 1 15 48zM49 48a9 9 0 0 1-9-9V38a1 1 0 0 1 1-1h6a1 1 0 0 1 0 2H42a7 7 0 0 0 14 0H51a1 1 0 0 1 0-2h6a1 1 0 0 1 1 1v1A9 9 0 0 1 49 48z"/><path fill="#122333" d="M23 39a1 1 0 0 1-.9-.57L15 23.35 7.9 38.43a1 1 0 0 1-1.8-.86l8-17a1 1 0 0 1 1.8 0l8 17a1 1 0 0 1-.47 1.33A1 1 0 0 1 23 39zM57 39a1 1 0 0 1-.91-.57L49 23.35 41.91 38.43a1 1 0 0 1-1.82-.86l8-17a1 1 0 0 1 1.82 0l8 17a1 1 0 0 1-.48 1.33A1 1 0 0 1 57 39zM32 18a6 6 0 0 1-6-6 5.68 5.68 0 0 1 .18-1.44 1 1 0 1 1 1.94.5A3.61 3.61 0 0 0 28 12a4 4 0 1 0 2-3.46 1 1 0 1 1-1-1.72A5.82 5.82 0 0 1 32 6a6 6 0 0 1 0 12zM26 32a1 1 0 0 1-1-1V30a1 1 0 0 1 2 0v1A1 1 0 0 1 26 32z"/><path fill="#122333" d="M38,52H34a1,1,0,0,1-1-1V37a.93.93,0,0,0-.29-.69A1,1,0,0,0,32,36a1,1,0,0,0-1,1V51a1,1,0,0,1-1,1H26a1,1,0,0,1-1-1V35a1,1,0,0,1,2,0V50h2V37a3,3,0,0,1,3-3,3,3,0,0,1,3,3V50h2V21a1,1,0,0,1,1-1H50a1,1,0,0,0,.76-.35,1,1,0,0,0,.22-.83A1.07,1.07,0,0,0,49.89,18H14.11a1.07,1.07,0,0,0-1.09.82,1,1,0,0,0,.22.83A1,1,0,0,0,14,20H26a1,1,0,0,1,1,1v5a1,1,0,0,1-2,0V22H14a3,3,0,0,1-3-3.5A3.08,3.08,0,0,1,14.11,16H49.89A3.08,3.08,0,0,1,53,18.5,3,3,0,0,1,50,22H39V51A1,1,0,0,1,38,52Z"/><path fill="#122333" d="M49,58H46a1,1,0,0,1,0-2h1.9A5,5,0,0,0,43,52H21a5,5,0,0,0-4.9,4H42a1,1,0,0,1,0,2H15a1,1,0,0,1-1-1,7,7,0,0,1,7-7H43a7,7,0,0,1,7,7A1,1,0,0,1,49,58Z"/></svg>