<svg xmlns="http://www.w3.org/2000/svg" width="32" height="32" viewBox="0 0 8.467 8.467"><g transform="translate(-238.795 -427.617) scale(.26458)"><g transform="translate(-67.882 1.414)"><path fill="#29a3ec" fill-rule="evenodd" d="m 988.09666,1631.5124 c -0.0734,0.013 -0.14508,0.041 -0.20898,0.084 l -4.05274,2.7461 -0.17382,-0.2598 -0.11719,0.082 -0.52149,-0.1016 -2.59179,-0.9394 c -0.76484,-0.2773 -1.59942,-0.3054 -2.37305,-0.059 0,0 -2.89126,1.2528 -4.43359,1.668 -0.47945,0.1292 -1.75,0.25 -1.75,0.25 l 1.91797,4.6445 a 0.50189492,0.49821177 80.000015 0 1 0.23046,-0.057 c 1.18699,-0.048 2.60498,-0.083 3.5918,-0.014 2.55205,0.1804 4.91927,1.4327 7.02539,1.1738 2.00659,-0.2466 4.02326,-1.1862 5.32227,-2.0664 0,0 4.68791,-3.1948 7.01172,-4.8105 0.0642,-0.045 0.19704,-0.2096 0.24218,-0.3867 0.0452,-0.177 0.0347,-0.3432 -0.0937,-0.5254 -0.11677,-0.1657 -0.57979,-0.3043 -0.83789,-0.1504 -1.21587,0.7249 -6.09375,3.4941 -6.09375,3.4941 a 0.50226011,0.49857428 80.000015 1 1 -0.48828,-0.8769 c 0,0 2.99236,-1.7091 4.84766,-2.7793 -0.0149,-0.069 -0.0488,-0.1352 -0.0879,-0.1993 l -0.18164,-0.1992 c -0.19924,-0.1359 -0.46169,-0.1517 -0.68164,-0.016 l -5.52344,3.4141 -0.51953,-0.8535 4.375,-2.7071 c -0.0179,-0.084 -0.0506,-0.1657 -0.10547,-0.2422 a 0.50189492,0.49821177 80.000015 0 1 -0.006,-0.01 c -0.19784,-0.2693 -0.56194,-0.3438 -0.82422,-0.1699 l -5.0332,3.3379 -0.55078,-0.8379 3.36718,-2.2324 c -0.0185,-0.046 -0.0317,-0.092 -0.0625,-0.1348 a 0.50189492,0.49821177 80.000015 0 1 -0.008,-0.012 c -0.14844,-0.202 -0.39106,-0.295 -0.61133,-0.2558 z"/><path fill="#3cdef6" fill-rule="evenodd" d="m 987.7589,1631.9535 c -0.0664,0.012 -0.13131,0.036 -0.18903,0.076 l -3.66601,2.4841 -0.15723,-0.235 -0.10594,0.075 -0.47173,-0.092 -2.34446,-0.8498 c -0.69186,-0.2508 -1.4468,-0.2763 -2.14661,-0.053 0,0 -2.61536,1.1332 -4.0105,1.5088 -0.43367,0.1171 -1.98923,0.2264 -1.98923,0.2264 l 1.73495,4.2013 c 0.0644,-0.034 0.54219,-0.051 0.61466,-0.052 1.07372,-0.043 2.35641,-0.076 3.24906,-0.012 2.30852,0.1633 4.44985,1.296 6.35498,1.0618 1.81521,-0.2226 3.63936,-1.073 4.8144,-1.8692 0,0 4.24057,-2.8899 6.34264,-4.3515 0.058,-0.041 0.17824,-0.1896 0.21907,-0.3498 0.0409,-0.1602 0.0314,-0.3105 -0.0848,-0.4753 -0.10563,-0.1499 -0.52447,-0.2752 -0.75794,-0.136 -1.09984,0.6558 -5.51225,3.1607 -5.51225,3.1607 -0.52448,0.2952 -0.96617,-0.4981 -0.44169,-0.7933 0,0 2.70681,-1.546 4.38507,-2.5141 -0.0135,-0.063 -0.0442,-0.1222 -0.0795,-0.1802 l -0.1643,-0.1802 c -0.18022,-0.1229 -0.41764,-0.1372 -0.61659,-0.014 l -4.99636,3.0883 -0.46996,-0.772 3.95751,-2.4488 c -0.0162,-0.076 -0.0458,-0.1498 -0.0954,-0.2191 -10e-4,2e-4 -0.004,-0.01 -0.005,-0.01 -0.17898,-0.2437 -0.50833,-0.3111 -0.74559,-0.1538 l -4.55289,3.0195 -0.49822,-0.758 3.04585,-2.0194 c -0.0167,-0.041 -0.0286,-0.082 -0.0565,-0.1219 -0.002,3e-4 -0.005,-0.01 -0.007,-0.011 -0.13428,-0.1828 -0.35374,-0.2669 -0.55301,-0.2315 z"/></g><path fill="#5a3392" fill-rule="evenodd" d="M920.69647 1631.9632c-.38716-.1048-.87996-.027-1.23878.2163l-4.16322 2.8123.67104.7619 4.05468-2.7462c.2539-.172.6108-.093.81446.1738.0531.07.0943.147.1311.225l.95519-.207c0 0-.0622-.3395-.27734-.6073-.22191-.2806-.4776-.5016-.94713-.6288zM929.08855 1633.1424c-.38794-.081-.8098-.021-1.18554.203-1.16604.6954-6.07618 3.4804-6.07618 3.4804a.50079279.50079279 0 1 0 .49415.8712c0 0 4.87768-2.7691 6.09374-3.4941.25606-.1527.71597-.017.83399.1504.12908.183.13912.3495.0937.5274-.0454.1778-.17692.3446-.24024.3887-2.32377 1.6156-7.01367 4.8105-7.01367 4.8105-1.29855.88-3.31491 1.8197-5.32031 2.0663-2.10316.2586-4.47064-.9926-7.02344-1.1738h-.002c-.98746-.07-2.40328-.037-3.58984.012a.50004994.50004994 0 1 0 .0391.998c1.17223-.048 2.58554-.075 3.48047-.012 2.24526.1589 4.66969 1.4813 7.21679 1.1681 2.22555-.2736 4.34291-1.2691 5.76172-2.2306 0 0 4.68737-3.1934 7.02149-4.8163.31265-.2174.53401-.5508.63867-.9611.10452-.4096.0605-.9182-.24414-1.3514-.23602-.335-.59057-.5562-.97852-.6367z" color="#000" font-family="sans-serif" font-weight="400" overflow="visible" style="line-height:normal;font-variant-ligatures:normal;font-variant-position:normal;font-variant-caps:normal;font-variant-numeric:normal;font-variant-alternates:normal;font-feature-settings:normal;text-indent:0;text-align:start;text-decoration-line:none;text-decoration-style:solid;text-decoration-color:#000;text-transform:none;text-orientation:mixed;shape-padding:0;isolation:auto;mix-blend-mode:normal"/><path fill="#5a3392" fill-rule="evenodd" d="m 925.20574,1632.7809 -5.52344,3.4141 0.52539,0.8516 5.52344,-3.4141 c 0.28219,-0.1745 0.63361,-0.1079 0.83203,0.1621 6.7e-4,0 10e-4,0 0.002,0 0.10749,0.1477 0.14505,0.3197 0.11718,0.4845 l 0.98633,0.1659 c 0.0714,-0.4218 -0.0232,-0.8766 -0.29687,-1.248 -0.23603,-0.2668 -0.45587,-0.5274 -1.00391,-0.6308 -0.44799,-0.09 -0.76801,-0.01 -1.16215,0.2147 z" color="#000" font-family="sans-serif" font-weight="400" overflow="visible" style="line-height:normal;font-variant-ligatures:normal;font-variant-position:normal;font-variant-caps:normal;font-variant-numeric:normal;font-variant-alternates:normal;font-feature-settings:normal;text-indent:0;text-align:start;text-decoration-line:none;text-decoration-style:solid;text-decoration-color:#000;text-transform:none;text-orientation:mixed;shape-padding:0;isolation:auto;mix-blend-mode:normal"/><path fill="#5a3392" fill-rule="evenodd" d="m 923.7448,1631.9978 c -0.3924,-0.078 -0.8112,-0.011 -1.16992,0.2266 l -5.03516,3.3398 0.55274,0.834 5.0332,-3.3398 c 0.26059,-0.1728 0.62147,-0.099 0.82032,0.1718 6.7e-4,0 0.001,0 0.002,0 0.10736,0.1475 0.14503,0.3199 0.11719,0.4844 l 0.98632,0.166 c 0.0713,-0.4213 -0.0259,-0.875 -0.29882,-1.2461 -4.1e-4,-5e-4 4e-4,0 0,0 -0.25712,-0.299 -0.56789,-0.5756 -1.00787,-0.6367 z" color="#000" font-family="sans-serif" font-weight="400" overflow="visible" style="line-height:normal;font-variant-ligatures:normal;font-variant-position:normal;font-variant-caps:normal;font-variant-numeric:normal;font-variant-alternates:normal;font-feature-settings:normal;text-indent:0;text-align:start;text-decoration-line:none;text-decoration-style:solid;text-decoration-color:#000;text-transform:none;text-orientation:mixed;shape-padding:0;isolation:auto;mix-blend-mode:normal"/><path fill="#5a3392" fill-rule="evenodd" d="m 910.07879,1633.9529 a 0.50004994,0.50004994 0 0 0 -0.0469,0.018 c 0,0 -2.91315,1.252 -4.36328,1.6425 -0.17016,0.046 -0.61635,0.113 -0.98633,0.1583 -0.36997,0.045 -0.68164,0.076 -0.68164,0.076 a 0.50004994,0.50004994 0 1 0 0.0937,0.9941 c 0,0 0.32379,-0.029 0.70899,-0.076 0.3852,-0.047 0.81573,-0.1041 1.125,-0.1875 1.61751,-0.4357 4.39645,-1.6484 4.45508,-1.674 0.66416,-0.2118 1.38563,-0.1902 2.05078,0.051 l 2.59179,0.9395 a 0.50004994,0.50004994 0 0 0 0.0781,0.021 l 4.17187,0.7891 c 0.35479,0.067 0.50158,0.1724 0.60743,0.3027 0.0997,0.1229 0.16714,0.3184 0.2207,0.5723 0.0114,0.1933 -0.0267,0.3155 -0.13086,0.4219 -0.10724,0.1095 -0.3231,0.2208 -0.69531,0.2597 l -5.51368,-0.037 a 0.50004994,0.50004994 0 1 0 -0.006,1 l 5.55273,0.037 a 0.50004994,0.50004994 0 0 0 0.0508,0 c 0.54702,-0.053 1.00777,-0.2334 1.32617,-0.5586 0.3184,-0.3252 0.4547,-0.7827 0.41797,-1.2246 a 0.50004994,0.50004994 0 0 0 -0.008,-0.055 c -0.0682,-0.3478 -0.17627,-0.7207 -0.43945,-1.0449 -0.26319,-0.3242 -0.6739,-0.5556 -1.19727,-0.6543 l -4.13281,-0.7813 -2.55469,-0.9257 c -0.86454,-0.3135 -1.81214,-0.3462 -2.69531,-0.064 z" color="#000" font-family="sans-serif" font-weight="400" overflow="visible" style="line-height:normal;font-variant-ligatures:normal;font-variant-position:normal;font-variant-caps:normal;font-variant-numeric:normal;font-variant-alternates:normal;font-feature-settings:normal;text-indent:0;text-align:start;text-decoration-line:none;text-decoration-style:solid;text-decoration-color:#000;text-transform:none;text-orientation:mixed;shape-padding:0;isolation:auto;mix-blend-mode:normal"/><path fill="#5a3392" style="line-height:normal;font-variant-ligatures:normal;font-variant-position:normal;font-variant-caps:normal;font-variant-numeric:normal;font-variant-alternates:normal;font-feature-settings:normal;text-indent:0;text-align:start;text-decoration-line:none;text-decoration-style:solid;text-decoration-color:#000;text-transform:none;text-orientation:mixed;shape-padding:0;isolation:auto;mix-blend-mode:normal" d="M924.04949 1645.1892a.50005.50005 0 1 0 0 1h.48633a.50005.50005 0 1 0 0-1zM921.54949 1645.1892a.50005.50005 0 1 0 0 1h.48633a.50005.50005 0 1 0 0-1zM923.03582 1646.1892a.50005.50005 0 0 0-.49219.5078v.4864a.50005.50005 0 1 0 1 0v-.4864a.50005.50005 0 0 0-.50781-.5078zM923.03582 1643.6892a.50005.50005 0 0 0-.49219.5078v.4864a.50005.50005 0 1 0 1 0v-.4864a.50005.50005 0 0 0-.50781-.5078z" color="#000" font-family="sans-serif" font-weight="400" overflow="visible"/><path fill="#5a3392" d="m 918.04284,1647.1903 a 0.5,0.5 0 0 1 -0.5,-0.5 0.5,0.5 0 0 1 0.5,-0.5 0.5,0.5 0 0 1 0.5,0.5 0.5,0.5 0 0 1 -0.5,0.5 z"/><path fill="#5a3392" style="line-height:normal;font-variant-ligatures:normal;font-variant-position:normal;font-variant-caps:normal;font-variant-numeric:normal;font-variant-alternates:normal;font-feature-settings:normal;text-indent:0;text-align:start;text-decoration-line:none;text-decoration-style:solid;text-decoration-color:#000;text-transform:none;text-orientation:mixed;shape-padding:0;isolation:auto;mix-blend-mode:normal" d="M931.54949 1641.1833a.50005.50005 0 1 0 0 1h.48633a.50005.50005 0 1 0 0-1zM929.04949 1641.1833a.50005.50005 0 1 0 0 1h.48633a.50005.50005 0 1 0 0-1zM930.53582 1642.1833a.50005.50005 0 0 0-.49219.5079v.4863a.50005.50005 0 1 0 1 0v-.4863a.50005.50005 0 0 0-.50781-.5079zM930.53582 1639.6833a.50005.50005 0 0 0-.49219.5079v.4863a.50005.50005 0 1 0 1 0v-.4863a.50005.50005 0 0 0-.50781-.5079z" color="#000" font-family="sans-serif" font-weight="400" overflow="visible"/><path fill="#5a3392" d="M927.04284 1644.1903a.5.5 0 0 1-.5-.5.5.5 0 0 1 .5-.5.5.5 0 0 1 .5.5.5.5 0 0 1-.5.5zM915.54284 1632.9403a.5.5 0 0 1-.5-.5.5.5 0 0 1 .5-.5.5.5 0 0 1 .5.5.5.5 0 0 1-.5.5z"/><path fill="#5a3392" style="line-height:normal;font-variant-ligatures:normal;font-variant-position:normal;font-variant-caps:normal;font-variant-numeric:normal;font-variant-alternates:normal;font-feature-settings:normal;text-indent:0;text-align:start;text-decoration-line:none;text-decoration-style:solid;text-decoration-color:#000;text-transform:none;text-orientation:mixed;shape-padding:0;isolation:auto;mix-blend-mode:normal" d="M906.04949 1618.1892a.50005.50005 0 1 0 0 1h.48633a.50005.50005 0 1 0 0-1zM908.54949 1618.1892a.50005.50005 0 1 0 0 1h.48633a.50005.50005 0 1 0 0-1zM907.53582 1619.1892a.50005.50005 0 0 0-.49219.5078v.4864a.50005.50005 0 1 0 1 0v-.4864a.50005.50005 0 0 0-.50781-.5078zM907.53582 1616.6892a.50005.50005 0 0 0-.49219.5078v.4864a.50005.50005 0 1 0 1 0v-.4864a.50005.50005 0 0 0-.50781-.5078z" color="#000" font-family="sans-serif" font-weight="400" overflow="visible"/><path fill="#5a3392" d="M911.54284 1618.1903a.5.5 0 0 0 .5-.5.5.5 0 0 0-.5-.5.5.5 0 0 0-.5.5.5.5 0 0 0 .5.5zM920.54284 1630.6903a.5.5 0 0 0 .5-.5.5.5 0 0 0-.5-.5.5.5 0 0 0-.5.5.5.5 0 0 0 .5.5zM913.54284 1619.6903a.5.5 0 0 0 .5-.5.5.5 0 0 0-.5-.5.5.5 0 0 0-.5.5.5.5 0 0 0 .5.5z"/><g transform="rotate(-180 918.532 1631.017)"><g transform="translate(-67.882 1.414)"><path fill="#ee746c" fill-rule="evenodd" d="m 988.09666,1631.5124 c -0.0734,0.013 -0.14508,0.041 -0.20898,0.084 l -4.05274,2.7461 -0.17382,-0.2598 -0.11719,0.082 -0.52149,-0.1016 -2.59179,-0.9394 c -0.76484,-0.2773 -1.59942,-0.3054 -2.37305,-0.059 0,0 -2.89126,1.2528 -4.43359,1.668 -0.47945,0.1292 -1.75,0.25 -1.75,0.25 l 1.91797,4.6445 a 0.50189492,0.49821177 80.000015 0 1 0.23046,-0.057 c 1.18699,-0.048 2.60498,-0.083 3.5918,-0.014 2.55205,0.1804 4.91927,1.4327 7.02539,1.1738 2.00659,-0.2466 4.02326,-1.1862 5.32227,-2.0664 0,0 4.68791,-3.1948 7.01172,-4.8105 0.0642,-0.045 0.19704,-0.2096 0.24218,-0.3867 0.0452,-0.177 0.0347,-0.3432 -0.0937,-0.5254 -0.11677,-0.1657 -0.57979,-0.3043 -0.83789,-0.1504 -1.21587,0.7249 -6.09375,3.4941 -6.09375,3.4941 a 0.50226011,0.49857428 80.000015 1 1 -0.48828,-0.8769 c 0,0 2.99236,-1.7091 4.84766,-2.7793 -0.0149,-0.069 -0.0488,-0.1352 -0.0879,-0.1993 l -0.18164,-0.1992 c -0.19924,-0.1359 -0.46169,-0.1517 -0.68164,-0.016 l -5.52344,3.4141 -0.51953,-0.8535 4.375,-2.7071 c -0.0179,-0.084 -0.0506,-0.1657 -0.10547,-0.2422 a 0.50189492,0.49821177 80.000015 0 1 -0.006,-0.01 c -0.19784,-0.2693 -0.56194,-0.3438 -0.82422,-0.1699 l -5.0332,3.3379 -0.55078,-0.8379 3.36718,-2.2324 c -0.0185,-0.046 -0.0317,-0.092 -0.0625,-0.1348 a 0.50189492,0.49821177 80.000015 0 1 -0.008,-0.012 c -0.14844,-0.202 -0.39106,-0.295 -0.61133,-0.2558 z"/><path fill="#fb9761" fill-rule="evenodd" d="m 987.7589,1631.9535 c -0.0664,0.012 -0.13131,0.036 -0.18903,0.076 l -3.66601,2.4841 -0.15723,-0.235 -0.10594,0.075 -0.47173,-0.092 -2.34446,-0.8498 c -0.69186,-0.2508 -1.4468,-0.2763 -2.14661,-0.053 0,0 -2.61536,1.1332 -4.0105,1.5088 -0.43367,0.1171 -1.98923,0.2264 -1.98923,0.2264 l 1.73495,4.2013 c 0.0644,-0.034 0.54219,-0.051 0.61466,-0.052 1.07372,-0.043 2.35641,-0.076 3.24906,-0.012 2.30852,0.1633 4.44985,1.296 6.35498,1.0618 1.81521,-0.2226 3.63936,-1.073 4.8144,-1.8692 0,0 4.24057,-2.8899 6.34264,-4.3515 0.058,-0.041 0.17824,-0.1896 0.21907,-0.3498 0.0409,-0.1602 0.0314,-0.3105 -0.0848,-0.4753 -0.10563,-0.1499 -0.52447,-0.2752 -0.75794,-0.136 -1.09984,0.6558 -5.51225,3.1607 -5.51225,3.1607 -0.52448,0.2952 -0.96617,-0.4981 -0.44169,-0.7933 0,0 2.70681,-1.546 4.38507,-2.5141 -0.0135,-0.063 -0.0442,-0.1222 -0.0795,-0.1802 l -0.1643,-0.1802 c -0.18022,-0.1229 -0.41764,-0.1372 -0.61659,-0.014 l -4.99636,3.0883 -0.46996,-0.772 3.95751,-2.4488 c -0.0162,-0.076 -0.0458,-0.1498 -0.0954,-0.2191 -10e-4,2e-4 -0.004,-0.01 -0.005,-0.01 -0.17898,-0.2437 -0.50833,-0.3111 -0.74559,-0.1538 l -4.55289,3.0195 -0.49822,-0.758 3.04585,-2.0194 c -0.0167,-0.041 -0.0286,-0.082 -0.0565,-0.1219 -0.002,3e-4 -0.005,-0.01 -0.007,-0.011 -0.13428,-0.1828 -0.35374,-0.2669 -0.55301,-0.2315 z"/></g><path fill="#5a3392" fill-rule="evenodd" style="line-height:normal;font-variant-ligatures:normal;font-variant-position:normal;font-variant-caps:normal;font-variant-numeric:normal;font-variant-alternates:normal;font-feature-settings:normal;text-indent:0;text-align:start;text-decoration-line:none;text-decoration-style:solid;text-decoration-color:#000;text-transform:none;text-orientation:mixed;shape-padding:0;isolation:auto;mix-blend-mode:normal" d="M920.69647 1631.9632c-.38716-.1048-.87996-.027-1.23878.2163l-4.16322 2.8123.67104.7619 4.05468-2.7462c.2539-.172.6108-.093.81446.1738.0531.07.0943.147.1311.225l.95519-.207c0 0-.0622-.3395-.27734-.6073-.22191-.2806-.4776-.5016-.94713-.6288zM929.08855 1633.1424c-.38794-.081-.8098-.021-1.18554.203-1.16604.6954-6.07618 3.4804-6.07618 3.4804a.50079279.50079279 0 1 0 .49415.8712c0 0 4.87768-2.7691 6.09374-3.4941.25606-.1527.71597-.017.83399.1504.12908.183.13912.3495.0937.5274-.0454.1778-.17692.3446-.24024.3887-2.32377 1.6156-7.01367 4.8105-7.01367 4.8105-1.29855.88-3.31491 1.8197-5.32031 2.0663-2.10316.2586-4.47064-.9926-7.02344-1.1738h-.002c-.98746-.07-2.40328-.037-3.58984.012a.50004994.50004994 0 1 0 .0391.998c1.17223-.048 2.58554-.075 3.48047-.012 2.24526.1589 4.66969 1.4813 7.21679 1.1681 2.22555-.2736 4.34291-1.2691 5.76172-2.2306 0 0 4.68737-3.1934 7.02149-4.8163.31265-.2174.53401-.5508.63867-.9611.10452-.4096.0605-.9182-.24414-1.3514-.23602-.335-.59057-.5562-.97852-.6367z" color="#000" font-family="sans-serif" font-weight="400" overflow="visible"/><path fill="#5a3392" fill-rule="evenodd" style="line-height:normal;font-variant-ligatures:normal;font-variant-position:normal;font-variant-caps:normal;font-variant-numeric:normal;font-variant-alternates:normal;font-feature-settings:normal;text-indent:0;text-align:start;text-decoration-line:none;text-decoration-style:solid;text-decoration-color:#000;text-transform:none;text-orientation:mixed;shape-padding:0;isolation:auto;mix-blend-mode:normal" d="m 925.20574,1632.7809 -5.52344,3.4141 0.52539,0.8516 5.52344,-3.4141 c 0.28219,-0.1745 0.63361,-0.1079 0.83203,0.1621 6.7e-4,0 10e-4,0 0.002,0 0.10749,0.1477 0.14505,0.3197 0.11718,0.4845 l 0.98633,0.1659 c 0.0714,-0.4218 -0.0232,-0.8766 -0.29687,-1.248 -0.23603,-0.2668 -0.45587,-0.5274 -1.00391,-0.6308 -0.44799,-0.09 -0.76801,-0.01 -1.16215,0.2147 z" color="#000" font-family="sans-serif" font-weight="400" overflow="visible"/><path fill="#5a3392" fill-rule="evenodd" style="line-height:normal;font-variant-ligatures:normal;font-variant-position:normal;font-variant-caps:normal;font-variant-numeric:normal;font-variant-alternates:normal;font-feature-settings:normal;text-indent:0;text-align:start;text-decoration-line:none;text-decoration-style:solid;text-decoration-color:#000;text-transform:none;text-orientation:mixed;shape-padding:0;isolation:auto;mix-blend-mode:normal" d="m 923.7448,1631.9978 c -0.3924,-0.078 -0.8112,-0.011 -1.16992,0.2266 l -5.03516,3.3398 0.55274,0.834 5.0332,-3.3398 c 0.26059,-0.1728 0.62147,-0.099 0.82032,0.1718 6.7e-4,0 0.001,0 0.002,0 0.10736,0.1475 0.14503,0.3199 0.11719,0.4844 l 0.98632,0.166 c 0.0713,-0.4213 -0.0259,-0.875 -0.29882,-1.2461 -4.1e-4,-5e-4 4e-4,0 0,0 -0.25712,-0.299 -0.56789,-0.5756 -1.00787,-0.6367 z" color="#000" font-family="sans-serif" font-weight="400" overflow="visible"/><path fill="#5a3392" fill-rule="evenodd" style="line-height:normal;font-variant-ligatures:normal;font-variant-position:normal;font-variant-caps:normal;font-variant-numeric:normal;font-variant-alternates:normal;font-feature-settings:normal;text-indent:0;text-align:start;text-decoration-line:none;text-decoration-style:solid;text-decoration-color:#000;text-transform:none;text-orientation:mixed;shape-padding:0;isolation:auto;mix-blend-mode:normal" d="m 910.07879,1633.9529 a 0.50004994,0.50004994 0 0 0 -0.0469,0.018 c 0,0 -2.91315,1.252 -4.36328,1.6425 -0.17016,0.046 -0.61635,0.113 -0.98633,0.1583 -0.36997,0.045 -0.68164,0.076 -0.68164,0.076 a 0.50004994,0.50004994 0 1 0 0.0937,0.9941 c 0,0 0.32379,-0.029 0.70899,-0.076 0.3852,-0.047 0.81573,-0.1041 1.125,-0.1875 1.61751,-0.4357 4.39645,-1.6484 4.45508,-1.674 0.66416,-0.2118 1.38563,-0.1902 2.05078,0.051 l 2.59179,0.9395 a 0.50004994,0.50004994 0 0 0 0.0781,0.021 l 4.17187,0.7891 c 0.35479,0.067 0.50158,0.1724 0.60743,0.3027 0.0997,0.1229 0.16714,0.3184 0.2207,0.5723 0.0114,0.1933 -0.0267,0.3155 -0.13086,0.4219 -0.10724,0.1095 -0.3231,0.2208 -0.69531,0.2597 l -5.51368,-0.037 a 0.50004994,0.50004994 0 1 0 -0.006,1 l 5.55273,0.037 a 0.50004994,0.50004994 0 0 0 0.0508,0 c 0.54702,-0.053 1.00777,-0.2334 1.32617,-0.5586 0.3184,-0.3252 0.4547,-0.7827 0.41797,-1.2246 a 0.50004994,0.50004994 0 0 0 -0.008,-0.055 c -0.0682,-0.3478 -0.17627,-0.7207 -0.43945,-1.0449 -0.26319,-0.3242 -0.6739,-0.5556 -1.19727,-0.6543 l -4.13281,-0.7813 -2.55469,-0.9257 c -0.86454,-0.3135 -1.81214,-0.3462 -2.69531,-0.064 z" color="#000" font-family="sans-serif" font-weight="400" overflow="visible"/></g></g></svg>