<svg xmlns="http://www.w3.org/2000/svg" viewBox="0 0 32 32"><path d="M30 5H11V27H30a1 1 0 0 0 1-1V6A1 1 0 0 0 30 5zM20.64 8.75a1 1 0 0 1 .91.63l1.71 4.25a1 1 0 0 1-.55 1.3 1 1 0 0 1-.38.07 1 1 0 0 1-.92-.63l-.81-2-.87 2a1 1 0 0 1-1.31.53 1 1 0 0 1-.53-1.31l1.82-4.25A1 1 0 0 1 20.64 8.75zm-6.53 0h3.4a1 1 0 0 1 0 2h-.7v3.38a1 1 0 0 1-2 0V10.75h-.7a1 1 0 0 1 0-2zm0 8.25h6a1 1 0 0 1 0 2h-6a1 1 0 0 1 0-2zm12 6h-12a1 1 0 0 1 0-2h12a1 1 0 0 1 0 2zm2.58-9.59a1 1 0 0 1-.8 1.59 1 1 0 0 1-.81-.41l-.75-1-.74 1a1 1 0 0 1-.81.41A1 1 0 0 1 24 13.41l1.12-1.53L24 10.34a1 1 0 1 1 1.62-1.18l.74 1 .75-1a1 1 0 1 1 1.61 1.18l-1.12 1.54zM1 6V26a1 1 0 0 0 1 1H9V5H2A1 1 0 0 0 1 6z"/></svg>