<svg width="326" height="371" viewBox="0 0 326 371" fill="none" xmlns="http://www.w3.org/2000/svg">
<path d="M139.756 43H296.357L324.762 0H117.289V8.98921L139.756 43Z" fill="url(#paint0_linear_34_10)"/>
<path d="M48.0194 170.106L121.211 59.1923L96.4709 18.7738L0.171339 164.705L6.35672 168.238L48.0194 170.106Z" fill="url(#paint1_linear_34_10)"/>
<path d="M142.659 327.524H299.643L325.376 370.524H120.506V364.541L142.659 327.524Z" fill="url(#paint2_linear_34_10)"/>
<path d="M47.0281 191.707L120.897 313.541L96.6999 356.566L0 197.076L5.36537 193.74L47.0281 191.707Z" fill="url(#paint3_linear_34_10)"/>
<defs>
<linearGradient id="paint0_linear_34_10" x1="311" y1="10" x2="90" y2="359.5" gradientUnits="userSpaceOnUse">
<stop stop-color="#4CE2EC"/>
<stop offset="0.651042" stop-color="#843DB2"/>
<stop offset="1" stop-color="#853DB3"/>
</linearGradient>
<linearGradient id="paint1_linear_34_10" x1="311" y1="10" x2="90" y2="359.5" gradientUnits="userSpaceOnUse">
<stop stop-color="#4CE2EC"/>
<stop offset="0.651042" stop-color="#843DB2"/>
<stop offset="1" stop-color="#853DB3"/>
</linearGradient>
<linearGradient id="paint2_linear_34_10" x1="311" y1="10" x2="90" y2="359.5" gradientUnits="userSpaceOnUse">
<stop stop-color="#4CE2EC"/>
<stop offset="0.651042" stop-color="#843DB2"/>
<stop offset="1" stop-color="#853DB3"/>
</linearGradient>
<linearGradient id="paint3_linear_34_10" x1="311" y1="10" x2="90" y2="359.5" gradientUnits="userSpaceOnUse">
<stop stop-color="#4CE2EC"/>
<stop offset="0.651042" stop-color="#843DB2"/>
<stop offset="1" stop-color="#853DB3"/>
</linearGradient>
</defs>
</svg>
